<?xml version="1.0" standalone="no"?>
<!DOCTYPE svg PUBLIC "-//W3C//DTD SVG 20010904//EN"
 "http://www.w3.org/TR/2001/REC-SVG-20010904/DTD/svg10.dtd">
<svg version="1.0" xmlns="http://www.w3.org/2000/svg"
 width="1496.000000pt" height="1496.000000pt" viewBox="0 0 1496.000000 1496.000000"
 preserveAspectRatio="xMidYMid meet">
<metadata>
Created by potrace 1.14, written by Peter Selinger 2001-2017
</metadata>
<g transform="translate(0.000000,1496.000000) scale(0.100000,-0.100000)"
fill="#000000" stroke="none">
<path d="M6145 9694 c-77 -25 -147 -48 -155 -51 -8 -3 -22 -7 -30 -9 -8 -2
-59 -18 -114 -37 l-99 -33 30 -25 c91 -76 197 -277 279 -528 20 -58 38 -113
41 -121 3 -8 6 -18 5 -22 -1 -4 3 -19 8 -34 22 -57 130 -474 123 -474 -3 0 0
-7 7 -15 10 -12 10 -16 -1 -20 -114 -39 -128 -42 -134 -22 -2 6 -34 107 -70
222 -36 116 -70 221 -75 235 -5 14 -18 57 -30 95 -11 39 -24 77 -27 85 -3 8
-7 20 -9 27 -7 37 -37 113 -43 113 -9 0 -60 -56 -82 -90 -17 -26 -47 -111 -54
-153 -19 -101 -23 -190 -20 -462 2 -278 -1 -319 -19 -230 -5 23 -44 188 -53
225 -4 14 -7 30 -8 35 0 6 -4 16 -8 23 -5 6 -6 12 -2 12 3 0 1 8 -4 18 -6 11
-12 30 -14 43 -13 67 -82 282 -127 389 -17 41 -38 93 -47 115 -9 22 -20 44
-24 49 -4 5 5 22 21 37 41 41 113 153 160 248 22 44 40 83 40 85 0 3 5 17 12
33 15 37 18 53 10 53 -9 0 -45 -11 -290 -89 -106 -34 -197 -59 -202 -56 -9 6
-187 -47 -282 -84 -28 -11 -28 -17 3 -96 32 -82 40 -125 28 -147 -35 -66 -134
-180 -189 -218 -12 -8 -32 -22 -44 -31 -23 -17 -111 -59 -135 -64 -9 -2 -29
-9 -46 -14 -24 -8 -18 -9 32 -5 34 3 70 7 81 9 11 2 36 6 56 9 20 3 52 9 72
12 19 3 58 12 87 20 29 8 61 16 72 18 11 3 38 11 60 19 41 16 55 14 55 -5 0
-11 91 -305 130 -418 20 -61 111 -349 115 -365 1 -5 5 -17 8 -25 3 -8 50 -152
103 -320 53 -168 107 -339 121 -380 13 -41 26 -82 28 -90 2 -8 10 -35 18 -60
8 -25 40 -126 72 -225 90 -287 98 -310 106 -319 7 -8 39 -4 184 21 22 3 50 7
63 7 12 1 22 4 22 9 0 4 3 6 8 5 4 -1 23 1 42 5 19 4 46 9 60 12 24 4 124 25
145 30 6 1 21 5 35 8 14 4 36 9 50 11 14 3 39 9 55 13 50 15 59 10 70 -32 6
-22 16 -57 23 -77 12 -32 16 -36 35 -28 30 12 236 76 307 95 3 1 12 4 20 8 28
10 405 131 418 133 22 4 22 6 -2 84 -16 51 -28 74 -37 72 -8 -2 -21 -5 -29 -7
-34 -8 -181 -55 -191 -61 -12 -7 -6 47 10 87 10 28 11 32 11 59 0 19 4 20 49
14 120 -16 146 -12 130 17 -5 10 -7 19 -3 19 3 0 2 6 -3 13 -6 6 -16 35 -23
62 -7 28 -17 55 -21 60 -4 6 -7 12 -6 15 0 3 -10 38 -22 78 -20 68 -22 103 -7
142 3 8 8 26 10 40 8 42 62 216 72 231 4 8 9 19 10 25 5 32 63 148 111 221 52
79 118 145 177 175 23 12 25 16 12 21 -9 4 -16 2 -16 -3 0 -6 -3 -9 -7 -9 -5
1 -10 0 -13 -1 -3 -1 -12 -3 -20 -5 -8 -1 -44 -11 -80 -20 -36 -9 -72 -19 -80
-21 -8 -2 -60 -15 -115 -29 -104 -28 -120 -32 -156 -40 -12 -2 -37 -9 -55 -15
-66 -22 -56 -40 -154 270 -29 91 -68 212 -87 270 -19 58 -36 112 -38 120 -3
16 -38 127 -107 340 -22 69 -41 130 -43 135 -1 6 -5 17 -8 25 -3 8 -29 89 -57
180 -28 91 -58 182 -65 203 -8 20 -15 39 -15 42 0 3 -7 32 -17 65 -13 49 -20
60 -37 59 -12 0 -84 -21 -161 -45z m173 -1621 c-1 -15 62 -219 89 -291 7 -17
-1 -42 -33 -110 -24 -48 -41 -89 -38 -91 2 -2 -1 -10 -7 -18 -6 -7 -9 -13 -5
-13 3 0 1 -12 -5 -27 -6 -16 -13 -37 -15 -48 -2 -11 -10 -51 -18 -90 -37 -177
-37 -161 11 -312 55 -169 100 -313 105 -333 7 -32 -153 4 -199 45 -6 5 -28 23
-49 39 -85 69 -181 241 -253 453 -44 128 -48 150 -28 150 6 0 93 26 192 57 99
32 185 59 191 61 7 2 21 30 31 62 17 49 18 63 8 93 -7 19 -13 38 -13 43 -1 4
-13 46 -28 93 l-27 85 23 47 c13 26 24 49 24 52 1 3 7 20 15 38 15 35 30 43
29 15z"/>
<path d="M9875 9474 c-77 -25 -184 -60 -238 -77 -55 -18 -99 -36 -99 -42 -1
-5 8 -14 18 -20 11 -5 48 -31 84 -57 64 -45 197 -129 275 -173 80 -45 298
-155 301 -152 2 2 -10 46 -27 98 -17 51 -32 99 -33 104 -1 6 -23 78 -50 160
-26 83 -51 161 -55 175 -4 14 -14 26 -22 27 -8 1 -77 -18 -154 -43z"/>
<path d="M8140 8929 c-47 -16 -92 -31 -100 -33 -8 -2 -22 -6 -30 -9 -8 -3 -38
-13 -66 -22 -48 -15 -54 -20 -74 -68 -12 -29 -40 -82 -61 -120 -32 -54 -43
-65 -53 -55 -7 7 -34 31 -61 53 -27 22 -57 48 -68 59 -19 18 -22 18 -126 -14
-58 -18 -109 -35 -113 -39 -3 -3 0 -24 7 -46 7 -22 23 -71 34 -110 12 -38 40
-126 63 -195 22 -68 41 -132 43 -140 10 -54 35 -90 77 -108 135 -62 241 -97
263 -88 14 5 15 9 5 21 -17 20 -5 19 60 -5 30 -11 73 -25 95 -31 22 -5 47 -11
55 -13 8 -2 44 -12 80 -21 36 -9 76 -19 90 -21 82 -12 155 -18 227 -18 45 0
80 -3 78 -6 -2 -3 -6 -31 -9 -61 -3 -30 -8 -65 -10 -79 -3 -14 -7 -43 -10 -65
-13 -106 -59 -350 -66 -350 -1 0 -3 -10 -6 -23 -2 -12 -13 -47 -23 -77 -11
-30 -15 -55 -10 -55 6 0 60 16 121 36 61 20 115 37 122 38 6 1 16 4 21 8 6 3
25 9 43 13 33 7 37 20 19 65 -3 8 -16 49 -28 90 -12 41 -26 84 -31 95 -4 11
-10 29 -12 40 -4 19 -50 163 -82 255 -24 70 -24 79 -3 85 10 4 19 9 19 13 -1
22 -23 33 -81 37 -111 9 -202 26 -242 47 -31 16 -12 19 39 7 118 -26 154 -28
154 -6 0 14 -40 37 -65 37 -8 0 -15 4 -15 8 0 5 24 8 53 8 71 -1 70 21 -3 45
-30 10 -63 19 -72 19 -10 0 -18 4 -18 9 0 5 11 8 24 5 14 -2 27 0 31 5 7 13
-27 30 -140 71 -100 36 -241 103 -268 127 -19 18 -15 32 5 16 13 -10 142 -48
166 -48 38 0 -20 53 -60 54 -9 1 -18 5 -20 9 -1 4 -19 15 -38 24 -33 16 -33
17 -10 21 310 62 333 70 324 101 -3 12 -24 77 -46 146 -22 69 -41 130 -42 135
-12 54 -51 155 -60 154 -6 -1 -49 -14 -96 -30z m210 -779 c11 -8 7 -9 -15 -4
-37 8 -45 14 -19 14 10 0 26 -5 34 -10z"/>
<path d="M2172 8603 c-24 -67 -187 -566 -197 -603 -4 -14 -13 -38 -20 -55 -7
-16 -72 -212 -145 -435 -73 -223 -136 -409 -140 -413 -4 -5 -379 -9 -834 -9
-454 -1 -826 -3 -826 -6 0 -8 65 -62 83 -68 9 -3 17 -10 17 -15 0 -5 4 -9 10
-9 5 0 18 -6 27 -14 51 -41 114 -86 122 -86 5 0 11 -4 13 -8 1 -4 44 -37 93
-72 50 -35 92 -68 93 -72 2 -4 8 -8 13 -8 7 0 214 -147 262 -185 9 -8 21 -15
26 -15 5 0 11 -4 13 -8 2 -5 32 -29 68 -54 125 -87 475 -340 487 -351 9 -9 4
-36 -23 -117 -20 -58 -37 -112 -39 -120 -2 -8 -10 -35 -19 -60 -35 -102 -78
-233 -80 -243 -1 -7 -4 -16 -8 -22 -3 -5 -14 -37 -24 -70 -22 -74 -20 -67 -27
-85 -6 -16 -29 -88 -33 -105 -5 -17 -102 -309 -114 -340 -6 -16 -13 -37 -15
-45 -4 -17 -53 -167 -62 -190 -3 -8 -7 -20 -9 -27 -1 -7 -12 -42 -24 -78 -12
-37 -20 -68 -17 -71 2 -2 42 23 88 55 46 33 92 66 103 73 10 7 33 24 51 38 18
14 43 32 55 40 13 8 44 31 71 50 26 19 57 42 69 50 24 16 118 84 135 97 6 4
33 24 60 43 28 19 55 38 60 43 6 4 48 35 95 68 47 33 96 68 110 79 14 10 123
88 242 174 157 112 223 154 235 149 10 -4 72 -37 138 -73 66 -37 145 -81 175
-97 30 -17 98 -54 150 -83 52 -29 120 -66 150 -83 30 -16 66 -36 79 -45 14 -8
59 -33 100 -55 42 -22 81 -43 87 -48 6 -5 42 -25 80 -45 l69 -36 -66 64 c-36
34 -106 99 -154 143 -154 139 -313 283 -341 310 -6 5 -51 46 -99 90 -49 44
-100 91 -114 104 -33 30 -171 155 -224 203 -43 38 -57 38 -97 1 -16 -15 -290
-211 -318 -228 -9 -5 -19 -12 -22 -16 -3 -3 -34 -25 -70 -50 -62 -42 -88 -62
-114 -84 -6 -5 -45 -32 -86 -60 -41 -27 -81 -56 -88 -62 -29 -27 -29 -10 -3
65 15 42 28 81 28 85 1 4 6 20 11 35 6 15 59 175 118 355 l107 329 -26 24
c-14 13 -28 24 -31 24 -3 0 -315 222 -361 258 -5 4 -35 25 -65 47 -30 22 -56
43 -58 47 -2 5 -9 8 -15 8 -7 0 -25 11 -42 25 -16 14 -61 47 -100 75 -47 34
-63 50 -50 51 11 0 224 1 473 1 430 0 453 1 462 19 11 19 69 191 75 220 2 8
10 32 19 52 8 21 15 38 14 40 -2 4 173 531 181 544 6 11 57 -140 238 -697 8
-24 28 -77 45 -118 l30 -73 52 6 c28 3 76 8 106 10 58 5 105 10 180 19 25 3
70 8 100 11 30 3 78 8 105 11 28 3 66 7 85 9 65 6 145 15 170 20 14 2 56 7 95
11 38 3 78 8 88 10 11 2 45 6 76 9 31 4 67 8 81 10 14 2 63 9 110 15 165 22
176 25 103 35 -26 4 -59 9 -73 11 -26 4 -81 11 -140 18 -81 10 -137 17 -165
21 -16 3 -58 7 -92 10 -35 4 -73 8 -85 11 -13 2 -50 7 -83 10 -116 12 -212 22
-270 29 -16 2 -61 6 -100 10 -87 8 -112 12 -123 19 -5 3 -19 38 -31 78 -13 40
-29 87 -37 103 -7 17 -15 44 -19 60 -4 17 -10 39 -15 50 -9 21 -102 302 -106
320 -1 6 -30 93 -64 195 -34 102 -63 190 -65 195 -1 6 -5 17 -8 25 -3 8 -29
87 -57 175 -28 88 -54 167 -57 175 -3 8 -7 20 -9 25 -1 6 -13 42 -27 80 -13
39 -24 74 -25 78 -2 25 -11 11 -30 -40z"/>
<path d="M4355 8610 c-11 -5 -101 -34 -200 -65 -99 -31 -198 -63 -220 -70 -96
-33 -393 -125 -403 -125 -20 0 -22 -18 -6 -61 8 -24 17 -51 19 -59 4 -18 40
-133 66 -210 10 -30 46 -143 79 -250 34 -107 69 -215 77 -240 8 -25 16 -49 17
-55 1 -5 22 -71 46 -145 24 -74 45 -139 46 -145 1 -5 18 -62 38 -125 20 -63
38 -119 40 -125 5 -18 57 172 71 265 4 25 9 53 11 63 3 17 7 60 19 182 3 28 7
95 10 150 3 55 8 132 10 170 3 39 7 111 10 160 3 50 7 101 10 115 12 78 16
108 20 138 7 62 65 227 94 271 42 63 95 116 135 135 52 25 62 48 11 26z"/>
<path d="M9498 8188 c-32 -4 -97 -20 -145 -35 -49 -15 -90 -27 -93 -28 -3 0
-36 -11 -75 -24 -229 -74 -352 -113 -365 -116 -20 -4 -70 -24 -70 -27 0 -2 35
-3 78 -4 92 0 171 -27 267 -89 99 -65 198 -156 520 -479 182 -182 350 -349
375 -371 44 -40 185 -161 205 -177 5 -4 26 -21 45 -38 19 -16 37 -30 41 -30 3
0 22 -13 40 -30 19 -16 38 -30 44 -30 5 0 57 15 115 34 58 19 172 55 253 81
91 29 147 52 144 59 -2 6 -28 88 -57 181 -62 202 -66 211 -105 251 -16 17 -82
86 -145 154 -212 226 -529 540 -546 540 -3 0 -19 11 -36 25 -44 37 -155 99
-222 124 -32 12 -88 24 -125 27 -36 3 -70 6 -76 8 -5 1 -36 -1 -67 -6z"/>
<path d="M4031 6549 c-46 -10 -104 -28 -128 -40 l-45 -22 6 -106 c5 -99 9
-136 20 -186 3 -11 5 -23 5 -26 1 -4 19 -7 41 -7 l39 -1 30 77 c70 182 68 179
118 193 63 17 139 15 223 -6 91 -24 189 -132 223 -245 16 -52 33 -148 32 -180
0 -13 -32 -15 -237 -12 -160 2 -239 -1 -243 -8 -9 -15 -10 -128 -2 -161 4 -16
13 -25 24 -24 22 2 146 18 153 20 3 1 39 5 80 9 41 5 82 10 90 11 8 2 43 6 77
10 l62 6 -4 -43 c-15 -173 -51 -267 -145 -381 -26 -31 -107 -78 -159 -92 -49
-13 -142 -13 -198 -1 -27 6 -32 15 -68 124 -21 64 -42 121 -47 127 -4 5 -8 19
-8 31 0 20 -5 22 -45 21 -44 -1 -44 -1 -50 -42 -18 -124 -24 -178 -30 -262
l-4 -61 47 -20 c62 -26 115 -38 223 -48 297 -28 538 55 666 229 69 93 105 181
128 317 8 42 8 206 2 270 -15 137 -78 276 -166 366 -61 63 -178 132 -251 148
-19 5 -53 12 -75 18 -77 18 -293 17 -384 -3z"/>
<path d="M5724 6496 c-3 -8 5 -47 18 -85 l23 -69 85 27 c47 16 111 36 143 46
31 10 57 20 57 24 0 10 -70 40 -125 55 -77 20 -194 21 -201 2z"/>
<path d="M8098 6411 c8 -4 13 -12 13 -17 -1 -14 108 -364 114 -364 1 0 21 7
44 15 22 8 41 11 42 7 0 -4 2 -16 5 -27 2 -11 6 -42 9 -70 3 -27 8 -56 11 -64
2 -8 7 -30 10 -50 3 -20 7 -37 8 -39 2 -1 20 -3 41 -5 l39 -2 40 125 c23 69
45 128 50 131 5 4 36 6 70 5 l61 -1 0 -353 c0 -380 2 -364 -50 -373 -11 -2
-33 -11 -50 -20 -24 -13 -30 -22 -30 -50 l0 -34 266 -3 c248 -2 267 -1 271 15
10 43 -6 66 -60 84 -29 10 -56 17 -60 16 -4 -1 -8 161 -10 360 l-2 362 69 -2
68 -1 39 -124 c41 -132 52 -146 103 -133 13 4 25 13 27 21 1 8 7 42 13 75 13
65 23 166 25 230 l1 40 -440 2 c-242 1 -447 2 -455 2 -9 1 -74 57 -145 126
-71 69 -134 125 -140 125 -5 0 -4 -4 3 -9z"/>
<path d="M9580 6178 c-25 -4 -58 -10 -75 -13 -53 -8 -80 -14 -120 -28 -34 -12
-38 -17 -40 -50 -2 -20 0 -37 4 -38 3 0 17 -3 31 -5 14 -3 36 -7 50 -8 14 -2
28 -4 33 -5 11 -2 9 -1071 -3 -1071 -5 0 -33 -9 -62 -20 -51 -19 -53 -21 -53
-57 l0 -38 260 0 260 0 2 25 c3 51 -18 72 -91 87 -11 2 -22 6 -25 9 -10 9 -8
264 2 264 4 0 17 -4 27 -10 16 -9 104 -24 140 -23 69 0 196 29 241 55 75 43
145 119 180 193 43 92 56 165 53 295 -6 287 -115 434 -329 448 -104 7 -177
-17 -237 -76 -27 -25 -48 -51 -48 -57 0 -5 -9 -21 -19 -34 -18 -24 -19 -24
-18 70 l1 94 -59 1 c-33 0 -80 -3 -105 -8z m436 -165 c86 -56 115 -335 57
-545 -9 -32 -20 -58 -24 -58 -5 0 -9 -6 -9 -13 0 -15 -45 -59 -77 -76 -45 -23
-177 -8 -209 24 -7 7 -10 94 -9 275 2 221 5 271 18 300 27 56 73 100 122 113
31 8 106 -3 131 -20z"/>
<path d="M10833 6170 c-29 -9 -53 -16 -53 -14 0 9 -108 -62 -135 -89 -32 -32
-85 -110 -90 -131 -1 -6 -7 -23 -13 -38 -22 -54 -33 -222 -20 -313 31 -213
168 -347 388 -381 154 -24 338 28 423 118 40 43 45 61 23 83 -11 12 -19 11
-49 -5 -76 -41 -210 -58 -294 -37 -103 26 -171 108 -195 236 -6 33 -8 64 -4
68 4 5 133 8 286 8 154 1 282 4 286 8 8 8 16 74 15 132 0 172 -78 295 -218
345 -90 32 -270 37 -350 10z m219 -108 c27 -16 54 -65 63 -117 9 -52 7 -157
-3 -164 -8 -5 -267 -6 -293 -2 -11 2 5 115 27 183 17 54 47 96 78 109 31 12
97 8 128 -9z"/>
<path d="M13110 6173 c-172 -44 -293 -183 -317 -363 -7 -52 -7 -169 -1 -220
29 -218 190 -374 398 -386 30 -2 57 -4 60 -4 3 -1 23 -1 45 0 133 5 267 63
327 142 25 32 25 35 10 55 l-17 22 -40 -20 c-106 -53 -255 -60 -344 -15 -82
40 -140 140 -144 247 l-2 44 283 0 c258 0 284 2 293 17 10 18 13 174 5 217
-30 143 -119 233 -266 267 -71 16 -221 15 -290 -3z m208 -107 c15 -8 34 -27
41 -43 7 -15 16 -35 20 -43 4 -8 9 -56 10 -106 2 -69 -1 -92 -11 -96 -7 -2
-76 -3 -153 -3 l-140 1 3 35 c14 155 55 247 117 262 40 10 87 7 113 -7z"/>
<path d="M14047 6184 c-2 -2 -21 -6 -43 -9 -69 -9 -141 -24 -182 -38 -47 -16
-60 -87 -17 -93 11 -1 38 -5 60 -9 l40 -6 0 -534 c0 -419 -3 -535 -12 -535 -7
0 -36 -10 -63 -22 -49 -21 -51 -24 -48 -58 l3 -35 260 0 260 0 0 38 c0 34 -3
39 -45 59 -25 12 -53 21 -62 20 -16 -1 -18 12 -18 135 0 113 2 134 14 130 51
-20 110 -30 166 -28 71 1 83 3 150 21 154 42 269 167 310 340 14 60 18 205 7
286 -20 154 -99 275 -207 318 -88 35 -265 29 -304 -10 -8 -8 -19 -14 -23 -14
-13 0 -63 -63 -91 -114 l-23 -41 1 65 c1 36 1 82 1 103 l-1 38 -65 -2 c-36 -1
-66 -4 -68 -5z m360 -152 c35 -3 91 -59 105 -105 17 -59 18 -70 25 -178 10
-186 -28 -341 -100 -405 -18 -16 -34 -28 -37 -28 -3 1 -11 -1 -18 -3 -23 -9
-137 3 -167 18 l-30 14 -2 263 c-2 242 -1 266 18 309 31 73 97 122 157 118 15
-1 37 -3 49 -3z"/>
<path d="M5042 6138 c0 -17 -3 -33 -7 -36 -7 -7 64 -41 87 -42 42 -1 43 -10
43 -370 l0 -342 -60 -23 c-60 -22 -60 -22 -61 -63 l-1 -41 248 -3 c194 -2 249
0 250 10 2 15 2 38 0 58 0 9 -22 25 -50 36 l-49 21 0 98 c0 53 -3 102 -7 108
-3 6 -3 11 2 11 9 0 8 82 0 105 -3 7 -2 27 2 43 5 16 5 35 0 43 -4 8 -4 21 1
28 4 8 4 26 0 42 -5 15 -5 30 -2 33 3 4 5 51 4 105 l-2 98 168 -1 167 -1 3
-355 2 -356 -50 -19 c-27 -11 -50 -25 -51 -32 -1 -7 -1 -22 -1 -33 0 -11 0
-24 1 -30 1 -6 92 -10 251 -10 l250 0 0 39 c0 37 -2 40 -49 60 -27 11 -56 21
-63 21 -12 0 -14 61 -14 352 l1 351 30 9 c17 5 45 16 63 25 28 14 32 21 32 54
l0 38 -569 -1 -568 -1 -1 -29z"/>
<path d="M6294 6163 c-17 -6 -7 -66 14 -81 9 -7 36 -18 60 -25 l42 -11 0 -353
c0 -195 -4 -353 -9 -353 -5 0 -33 -11 -63 -24 -53 -23 -54 -25 -50 -60 l4 -36
179 0 178 0 154 258 c85 141 167 280 183 307 15 28 35 64 45 82 10 17 16 33
14 35 -2 1 4 9 13 17 13 13 14 9 7 -40 -5 -30 -9 -161 -10 -292 -2 -163 -6
-242 -14 -250 -6 -6 -11 -7 -11 -3 0 5 -7 3 -15 -4 -8 -7 -15 -9 -15 -6 0 17
-59 -29 -62 -48 -10 -58 -19 -57 255 -54 l251 3 2 30 c2 40 -8 50 -62 66 -25
8 -50 19 -56 26 -8 11 -11 198 -8 640 l0 62 34 6 c18 4 47 15 63 25 29 17 32
27 24 82 -1 4 -81 6 -178 5 l-177 -2 -53 -85 c-29 -47 -59 -96 -66 -110 -8
-14 -46 -79 -86 -145 -147 -241 -161 -266 -161 -273 0 -4 -14 -29 -31 -57
l-31 -50 7 50 c4 28 9 111 12 185 4 129 4 144 2 173 -1 17 1 133 4 184 0 6 23
20 51 31 49 18 51 21 54 60 l3 40 -243 0 c-134 -1 -248 -3 -254 -5z"/>
<path d="M11534 6161 c-13 -8 -12 -64 1 -74 6 -4 34 -14 63 -23 l52 -15 0
-353 0 -353 -42 -13 c-69 -22 -85 -36 -83 -72 l2 -33 251 -3 252 -2 0 36 c0
42 -12 55 -65 73 l-40 13 0 151 0 152 175 0 175 0 0 -150 0 -150 -50 -20 c-48
-19 -50 -22 -53 -63 l-3 -42 250 0 c138 0 251 3 252 8 7 66 6 70 -31 87 -31
14 -57 22 -82 24 -5 1 -8 160 -8 354 l0 353 60 18 c34 10 61 24 61 32 1 8 2
21 2 29 0 45 10 43 -250 41 l-248 -1 -3 -36 c-2 -29 2 -39 22 -53 15 -9 26
-14 26 -11 0 3 12 -1 28 -9 l27 -14 -1 -139 c-1 -76 -2 -140 -3 -143 -1 -7
-341 -7 -342 -1 -7 30 -2 291 5 291 5 0 28 10 52 22 40 20 44 25 44 58 l0 37
-244 0 c-134 1 -247 -2 -252 -6z"/>
<path d="M7644 5842 c-19 -3 -21 -10 -22 -87 l0 -85 267 0 268 0 -1 79 c-1 44
-4 82 -8 86 -7 7 -461 13 -504 7z"/>
</g>
</svg>
